<mxfile host="app.diagrams.net" modified="2024-05-31T11:49:03.952Z" agent="Mozilla/5.0 (Windows NT 10.0; Win64; x64) AppleWebKit/537.36 (KHTML, like Gecko) Chrome/125.0.0.0 Safari/537.36" etag="E_ad0gOEZd8c-QJwzY5_" version="24.4.12" type="github">
  <diagram name="페이지-1" id="td2MEsn-6-XZO1J9ZWJr">
    <mxGraphModel dx="1185" dy="632" grid="1" gridSize="10" guides="1" tooltips="1" connect="1" arrows="1" fold="1" page="1" pageScale="1" pageWidth="827" pageHeight="1169" math="0" shadow="0">
      <root>
        <mxCell id="0" />
        <mxCell id="1" parent="0" />
        <mxCell id="BiX69yMK-JhwcveedATh-8" value="" style="group" vertex="1" connectable="0" parent="1">
          <mxGeometry x="80" y="90" width="320" height="350" as="geometry" />
        </mxCell>
        <mxCell id="BiX69yMK-JhwcveedATh-6" value="" style="group" vertex="1" connectable="0" parent="BiX69yMK-JhwcveedATh-8">
          <mxGeometry y="30" width="320" height="320" as="geometry" />
        </mxCell>
        <mxCell id="BiX69yMK-JhwcveedATh-1" value="" style="whiteSpace=wrap;html=1;aspect=fixed;" vertex="1" parent="BiX69yMK-JhwcveedATh-6">
          <mxGeometry width="320" height="320" as="geometry" />
        </mxCell>
        <mxCell id="BiX69yMK-JhwcveedATh-2" value="아이디" style="rounded=0;whiteSpace=wrap;html=1;" vertex="1" parent="BiX69yMK-JhwcveedATh-6">
          <mxGeometry x="40" y="50" width="240" height="60" as="geometry" />
        </mxCell>
        <mxCell id="BiX69yMK-JhwcveedATh-3" value="비밀번호" style="rounded=0;whiteSpace=wrap;html=1;" vertex="1" parent="BiX69yMK-JhwcveedATh-6">
          <mxGeometry x="40" y="130" width="240" height="60" as="geometry" />
        </mxCell>
        <mxCell id="BiX69yMK-JhwcveedATh-4" value="로그인" style="rounded=1;whiteSpace=wrap;html=1;" vertex="1" parent="BiX69yMK-JhwcveedATh-6">
          <mxGeometry x="100" y="210" width="120" height="40" as="geometry" />
        </mxCell>
        <mxCell id="BiX69yMK-JhwcveedATh-5" value="회원가입" style="rounded=1;whiteSpace=wrap;html=1;" vertex="1" parent="BiX69yMK-JhwcveedATh-6">
          <mxGeometry x="100" y="260" width="120" height="40" as="geometry" />
        </mxCell>
        <mxCell id="BiX69yMK-JhwcveedATh-7" value="로그인" style="text;html=1;align=center;verticalAlign=middle;whiteSpace=wrap;rounded=0;" vertex="1" parent="BiX69yMK-JhwcveedATh-8">
          <mxGeometry width="60" height="30" as="geometry" />
        </mxCell>
        <mxCell id="BiX69yMK-JhwcveedATh-41" value="" style="group" vertex="1" connectable="0" parent="1">
          <mxGeometry x="560" y="120" width="320" height="320" as="geometry" />
        </mxCell>
        <mxCell id="BiX69yMK-JhwcveedATh-9" value="" style="rounded=0;whiteSpace=wrap;html=1;" vertex="1" parent="BiX69yMK-JhwcveedATh-41">
          <mxGeometry width="320" height="320" as="geometry" />
        </mxCell>
        <mxCell id="BiX69yMK-JhwcveedATh-10" value="" style="rounded=0;whiteSpace=wrap;html=1;fillColor=#f5f5f5;fontColor=#333333;strokeColor=#666666;" vertex="1" parent="BiX69yMK-JhwcveedATh-41">
          <mxGeometry y="270" width="320" height="50" as="geometry" />
        </mxCell>
        <mxCell id="BiX69yMK-JhwcveedATh-36" value="" style="group" vertex="1" connectable="0" parent="BiX69yMK-JhwcveedATh-41">
          <mxGeometry x="20" y="20" width="290" height="220" as="geometry" />
        </mxCell>
        <mxCell id="BiX69yMK-JhwcveedATh-13" value="" style="group" vertex="1" connectable="0" parent="BiX69yMK-JhwcveedATh-36">
          <mxGeometry width="130" height="100" as="geometry" />
        </mxCell>
        <mxCell id="BiX69yMK-JhwcveedATh-11" value="" style="shape=trapezoid;perimeter=trapezoidPerimeter;whiteSpace=wrap;html=1;fixedSize=1;" vertex="1" parent="BiX69yMK-JhwcveedATh-13">
          <mxGeometry width="108.33333333333333" height="50" as="geometry" />
        </mxCell>
        <mxCell id="BiX69yMK-JhwcveedATh-12" value="" style="shape=trapezoid;perimeter=trapezoidPerimeter;whiteSpace=wrap;html=1;fixedSize=1;rotation=-180;" vertex="1" parent="BiX69yMK-JhwcveedATh-13">
          <mxGeometry y="50" width="108.33333333333333" height="50" as="geometry" />
        </mxCell>
        <mxCell id="BiX69yMK-JhwcveedATh-16" value="" style="triangle;whiteSpace=wrap;html=1;rotation=-180;strokeColor=none;" vertex="1" parent="BiX69yMK-JhwcveedATh-13">
          <mxGeometry y="33.333333333333336" width="27.083333333333332" height="33.333333333333336" as="geometry" />
        </mxCell>
        <mxCell id="BiX69yMK-JhwcveedATh-17" value="" style="triangle;whiteSpace=wrap;html=1;rotation=0;strokeColor=none;" vertex="1" parent="BiX69yMK-JhwcveedATh-13">
          <mxGeometry x="81.25" y="33.333333333333336" width="27.083333333333332" height="33.333333333333336" as="geometry" />
        </mxCell>
        <mxCell id="BiX69yMK-JhwcveedATh-15" value="운동" style="rounded=0;whiteSpace=wrap;html=1;strokeColor=none;" vertex="1" parent="BiX69yMK-JhwcveedATh-13">
          <mxGeometry x="19.85666666666667" y="37.49666666666667" width="68.61111111111111" height="25" as="geometry" />
        </mxCell>
        <mxCell id="BiX69yMK-JhwcveedATh-18" value="" style="group" vertex="1" connectable="0" parent="BiX69yMK-JhwcveedATh-36">
          <mxGeometry x="150" width="130" height="100" as="geometry" />
        </mxCell>
        <mxCell id="BiX69yMK-JhwcveedATh-19" value="" style="shape=trapezoid;perimeter=trapezoidPerimeter;whiteSpace=wrap;html=1;fixedSize=1;" vertex="1" parent="BiX69yMK-JhwcveedATh-18">
          <mxGeometry width="108.33333333333333" height="50" as="geometry" />
        </mxCell>
        <mxCell id="BiX69yMK-JhwcveedATh-20" value="" style="shape=trapezoid;perimeter=trapezoidPerimeter;whiteSpace=wrap;html=1;fixedSize=1;rotation=-180;" vertex="1" parent="BiX69yMK-JhwcveedATh-18">
          <mxGeometry y="50" width="108.33333333333333" height="50" as="geometry" />
        </mxCell>
        <mxCell id="BiX69yMK-JhwcveedATh-21" value="" style="triangle;whiteSpace=wrap;html=1;rotation=-180;strokeColor=none;" vertex="1" parent="BiX69yMK-JhwcveedATh-18">
          <mxGeometry y="33.333333333333336" width="27.083333333333332" height="33.333333333333336" as="geometry" />
        </mxCell>
        <mxCell id="BiX69yMK-JhwcveedATh-22" value="" style="triangle;whiteSpace=wrap;html=1;rotation=0;strokeColor=none;" vertex="1" parent="BiX69yMK-JhwcveedATh-18">
          <mxGeometry x="81.25" y="33.333333333333336" width="27.083333333333332" height="33.333333333333336" as="geometry" />
        </mxCell>
        <mxCell id="BiX69yMK-JhwcveedATh-23" value="바디" style="rounded=0;whiteSpace=wrap;html=1;strokeColor=none;" vertex="1" parent="BiX69yMK-JhwcveedATh-18">
          <mxGeometry x="19.85666666666667" y="37.49666666666667" width="68.61111111111111" height="25" as="geometry" />
        </mxCell>
        <mxCell id="BiX69yMK-JhwcveedATh-24" value="" style="group" vertex="1" connectable="0" parent="BiX69yMK-JhwcveedATh-36">
          <mxGeometry x="10" y="120" width="130" height="100" as="geometry" />
        </mxCell>
        <mxCell id="BiX69yMK-JhwcveedATh-25" value="" style="shape=trapezoid;perimeter=trapezoidPerimeter;whiteSpace=wrap;html=1;fixedSize=1;" vertex="1" parent="BiX69yMK-JhwcveedATh-24">
          <mxGeometry width="108.33333333333333" height="50" as="geometry" />
        </mxCell>
        <mxCell id="BiX69yMK-JhwcveedATh-26" value="" style="shape=trapezoid;perimeter=trapezoidPerimeter;whiteSpace=wrap;html=1;fixedSize=1;rotation=-180;" vertex="1" parent="BiX69yMK-JhwcveedATh-24">
          <mxGeometry y="50" width="108.33333333333333" height="50" as="geometry" />
        </mxCell>
        <mxCell id="BiX69yMK-JhwcveedATh-27" value="" style="triangle;whiteSpace=wrap;html=1;rotation=-180;strokeColor=none;" vertex="1" parent="BiX69yMK-JhwcveedATh-24">
          <mxGeometry y="33.333333333333336" width="27.083333333333332" height="33.333333333333336" as="geometry" />
        </mxCell>
        <mxCell id="BiX69yMK-JhwcveedATh-28" value="" style="triangle;whiteSpace=wrap;html=1;rotation=0;strokeColor=none;" vertex="1" parent="BiX69yMK-JhwcveedATh-24">
          <mxGeometry x="81.25" y="33.333333333333336" width="27.083333333333332" height="33.333333333333336" as="geometry" />
        </mxCell>
        <mxCell id="BiX69yMK-JhwcveedATh-29" value="출석" style="rounded=0;whiteSpace=wrap;html=1;strokeColor=none;" vertex="1" parent="BiX69yMK-JhwcveedATh-24">
          <mxGeometry x="19.85666666666667" y="37.49666666666667" width="68.61111111111111" height="25" as="geometry" />
        </mxCell>
        <mxCell id="BiX69yMK-JhwcveedATh-30" value="" style="group" vertex="1" connectable="0" parent="BiX69yMK-JhwcveedATh-36">
          <mxGeometry x="150" y="120" width="130" height="100" as="geometry" />
        </mxCell>
        <mxCell id="BiX69yMK-JhwcveedATh-31" value="" style="shape=trapezoid;perimeter=trapezoidPerimeter;whiteSpace=wrap;html=1;fixedSize=1;" vertex="1" parent="BiX69yMK-JhwcveedATh-30">
          <mxGeometry width="108.33333333333333" height="50" as="geometry" />
        </mxCell>
        <mxCell id="BiX69yMK-JhwcveedATh-32" value="" style="shape=trapezoid;perimeter=trapezoidPerimeter;whiteSpace=wrap;html=1;fixedSize=1;rotation=-180;" vertex="1" parent="BiX69yMK-JhwcveedATh-30">
          <mxGeometry y="50" width="108.33333333333333" height="50" as="geometry" />
        </mxCell>
        <mxCell id="BiX69yMK-JhwcveedATh-33" value="" style="triangle;whiteSpace=wrap;html=1;rotation=-180;strokeColor=none;" vertex="1" parent="BiX69yMK-JhwcveedATh-30">
          <mxGeometry y="33.333333333333336" width="27.083333333333332" height="33.333333333333336" as="geometry" />
        </mxCell>
        <mxCell id="BiX69yMK-JhwcveedATh-34" value="" style="triangle;whiteSpace=wrap;html=1;rotation=0;strokeColor=none;" vertex="1" parent="BiX69yMK-JhwcveedATh-30">
          <mxGeometry x="81.25" y="33.333333333333336" width="27.083333333333332" height="33.333333333333336" as="geometry" />
        </mxCell>
        <mxCell id="BiX69yMK-JhwcveedATh-35" value="마이" style="rounded=0;whiteSpace=wrap;html=1;strokeColor=none;" vertex="1" parent="BiX69yMK-JhwcveedATh-30">
          <mxGeometry x="19.85666666666667" y="37.49666666666667" width="68.61111111111111" height="25" as="geometry" />
        </mxCell>
        <mxCell id="BiX69yMK-JhwcveedATh-37" value="홈" style="rounded=1;whiteSpace=wrap;html=1;" vertex="1" parent="BiX69yMK-JhwcveedATh-41">
          <mxGeometry x="30" y="275" width="40" height="40" as="geometry" />
        </mxCell>
        <mxCell id="BiX69yMK-JhwcveedATh-38" value="운동" style="rounded=1;whiteSpace=wrap;html=1;" vertex="1" parent="BiX69yMK-JhwcveedATh-41">
          <mxGeometry x="100" y="275" width="40" height="40" as="geometry" />
        </mxCell>
        <mxCell id="BiX69yMK-JhwcveedATh-39" value="바디" style="rounded=1;whiteSpace=wrap;html=1;" vertex="1" parent="BiX69yMK-JhwcveedATh-41">
          <mxGeometry x="170" y="275" width="40" height="40" as="geometry" />
        </mxCell>
        <mxCell id="BiX69yMK-JhwcveedATh-40" value="공지" style="rounded=1;whiteSpace=wrap;html=1;" vertex="1" parent="BiX69yMK-JhwcveedATh-41">
          <mxGeometry x="240" y="275" width="40" height="40" as="geometry" />
        </mxCell>
      </root>
    </mxGraphModel>
  </diagram>
</mxfile>
